<?xml version="1.0" encoding="utf-8"?>
<!-- Generator: Adobe Illustrator 18.1.0, SVG Export Plug-In . SVG Version: 6.00 Build 0)  -->
<svg version="1.1" id="图层_1" xmlns="http://www.w3.org/2000/svg" xmlns:xlink="http://www.w3.org/1999/xlink" x="0px" y="0px"
	 viewBox="0 0 80 80" enable-background="new 0 0 80 80" xml:space="preserve">
<path d="M69.8,76H8.5c-0.9,0-1.8-0.4-2.5-1c-0.7-0.7-1-1.5-1-2.5v-63C5,7.5,6.6,6,8.5,6C10.4,6,12,7.5,12,9.5V69h57.8
	c1.9,0,3.5,1.6,3.5,3.5C73.3,74.5,71.7,76,69.8,76L69.8,76z"/>
<path d="M25,53.6c-3.5,0-6.4-2.9-6.4-5.8S21.5,42,25,42c3.5,0,6.4,2.9,6.4,5.8S28.4,53.6,25,53.6L25,53.6z"/>
<path d="M45.9,46.1c-4.6,0-8.7-4.1-8.7-8.7s4.1-8.7,8.7-8.7c4.6,0,8.7,4.1,8.7,8.7S50.5,46.1,45.9,46.1L45.9,46.1z"/>
<path d="M64.4,48.4c-2.3,0-3.5-1.7-3.5-3.5c0-1.7,1.7-3.5,3.5-3.5c1.7,0,3.5,1.7,3.5,3.5C67.9,46.7,66.2,48.4,64.4,48.4L64.4,48.4z"
	/>
<path d="M52.8,20.6c-2.9,0-5.2-2.3-5.2-4.6c0-2.3,2.3-5.2,5.2-5.2c2.9,0,5.2,2.3,5.2,5.2C58,18.8,55.7,20.6,52.8,20.6L52.8,20.6z"/>
<path d="M41.8,62.9c-2.3,0-4.6-2.3-4.6-4.6c0-2.3,2.3-4.6,4.6-4.6c2.3,0,4.6,2.3,4.6,4.6C46.4,60.6,44.1,62.9,41.8,62.9L41.8,62.9z"
	/>
<path d="M41.8,59.9"/>
</svg>
