<?xml version="1.0" encoding="utf-8"?>
<!-- Generator: Adobe Illustrator 18.1.0, SVG Export Plug-In . SVG Version: 6.00 Build 0)  -->
<svg version="1.1" id="图层_1" xmlns="http://www.w3.org/2000/svg" xmlns:xlink="http://www.w3.org/1999/xlink" x="0px" y="0px"
	 viewBox="0 0 80 80" enable-background="new 0 0 80 80" xml:space="preserve">
<path d="M69.6,77H8.4c-0.9,0-1.8-0.4-2.5-1c-0.7-0.7-1-1.5-1-2.5v-63C4.9,8.5,6.4,7,8.4,7c1.9,0,3.5,1.6,3.5,3.5V70h57.8
	c1.9,0,3.5,1.6,3.5,3.5C73.1,75.5,71.6,77,69.6,77L69.6,77z"/>
<path d="M34.5,13.1c0-0.3,0.1-0.6,0.4-0.8c0.3-0.2,0.6-0.3,1-0.3H49c0.4,0,0.7,0.1,1,0.3c0.3,0.2,0.4,0.5,0.4,0.8v53.7H34.5V13.1z
	 M34.5,13.1"/>
<path d="M14.6,33c0-0.3,0.1-0.5,0.4-0.7c0.3-0.2,0.6-0.3,1-0.3h13.1c0.4,0,0.7,0.1,1,0.3c0.3,0.2,0.4,0.5,0.4,0.7v33.9H14.6V33z
	 M14.6,33"/>
<path d="M54.4,47.5c0-0.3,0.1-0.5,0.4-0.7c0.3-0.2,0.6-0.3,1-0.3h13.1c0.4,0,0.7,0.1,1,0.3c0.3,0.2,0.4,0.5,0.4,0.7v19.4H54.4V47.5z
	 M54.4,47.5"/>
</svg>
