<?xml version="1.0" encoding="utf-8"?>
<!-- Generator: Adobe Illustrator 18.1.0, SVG Export Plug-In . SVG Version: 6.00 Build 0)  -->
<svg version="1.1" id="图层_1" xmlns="http://www.w3.org/2000/svg" xmlns:xlink="http://www.w3.org/1999/xlink" x="0px" y="0px"
	 viewBox="0 0 80 80" enable-background="new 0 0 80 80" xml:space="preserve">
<path d="M43.7,27.7c0-2-1.6-3.7-3.7-3.7c-2,0-3.7,1.6-3.7,3.7c0,2,1.6,3.7,3.7,3.7C42,31.3,43.7,29.7,43.7,27.7L43.7,27.7z
	 M65.6,49.6c0-2-1.6-3.7-3.7-3.7c-2,0-3.7,1.6-3.7,3.7c0,2,1.6,3.7,3.7,3.7C64,53.3,65.6,51.6,65.6,49.6L65.6,49.6z M18,46
	c-2,0-3.7,1.6-3.7,3.7c0,2,1.6,3.7,3.7,3.7c2,0,3.7-1.6,3.7-3.7C21.7,47.6,20.1,46,18,46L18,46z M21.9,31.5c-1.4,1.4-1.4,3.7,0,5.2
	c1.4,1.4,3.7,1.4,5.2,0c1.4-1.4,1.4-3.7,0-5.2C25.6,30.1,23.3,30.1,21.9,31.5L21.9,31.5z M58.1,31.5c-1.4-1.4-3.7-1.4-5.2,0
	c-1.4,1.4-1.4,3.7,0,5.2c1.4,1.4,3.7,1.4,5.2,0C59.6,35.3,59.6,32.9,58.1,31.5L58.1,31.5z M65.9,23.7C59,16.8,49.8,13,40,13
	c-9.8,0-19,3.8-25.9,10.7C7.2,30.7,3.4,39.9,3.4,49.6c0,8,2.6,15.6,7.3,22l5.2-5.2c-3.4-4.9-5.3-10.6-5.3-16.7
	c0-7.8,3-15.2,8.6-20.7c5.5-5.5,12.9-8.6,20.7-8.6c7.8,0,15.2,3,20.7,8.6c5.5,5.5,8.6,12.9,8.6,20.7c0,6.1-1.9,11.8-5.3,16.7
	l5.2,5.2c4.7-6.3,7.3-13.9,7.3-22C76.6,39.9,72.8,30.7,65.9,23.7L65.9,23.7z M35.2,56c-1.5,2.6-0.6,6,2,7.5c2.6,1.5,6,0.6,7.5-2
	c1.5-2.6,5.3-20.2,5.3-20.2S36.8,53.4,35.2,56L35.2,56z M35.2,56"/>
</svg>
