<?xml version="1.0" encoding="utf-8"?>
<!-- Generator: Adobe Illustrator 18.1.0, SVG Export Plug-In . SVG Version: 6.00 Build 0)  -->
<svg version="1.1" id="图层_1" xmlns="http://www.w3.org/2000/svg" xmlns:xlink="http://www.w3.org/1999/xlink" x="0px" y="0px"
	 viewBox="0 0 80 80" enable-background="new 0 0 80 80" xml:space="preserve">
<path d="M40.3,8.5L6.5,34.3l12.9,41.8h41.8l12.9-41.8L40.3,8.5z M67.2,34.1l-4.3,1L42.3,22v-6.8L67.2,34.1z M37.1,43.9l-9.5,15.3
	L24.8,41L37.1,43.9z M26.3,37.1l12-10.2v13L26.3,37.1z M40.3,46.4l4.4,7l-12.6,6.3L40.3,46.4z M43.6,43.9l13.2-3.1l-8.9,10.1
	L43.6,43.9z M42.3,40V26.4l15.5,9.9L42.3,40z M38.4,15.2v7L21.9,36.1l-8.3-2L38.4,15.2z M11.8,37.9l9.2,2.2l3.8,23.8l-3.3,5.3
	L11.8,37.9z M24.5,71.9l3.9-6.3l18.2-9L56.2,72L24.5,71.9L24.5,71.9z M59.2,69.2l-9.4-15.1l13-14.7l6-1.4L59.2,69.2z M59.2,69.2"/>
</svg>
