<?xml version="1.0" encoding="utf-8"?>
<!-- Generator: Adobe Illustrator 18.1.0, SVG Export Plug-In . SVG Version: 6.00 Build 0)  -->
<svg version="1.1" id="图层_1" xmlns="http://www.w3.org/2000/svg" xmlns:xlink="http://www.w3.org/1999/xlink" x="0px" y="0px"
	 viewBox="0 0 80 80" enable-background="new 0 0 80 80" xml:space="preserve">
<path d="M64.4,8.4l-13.2,6.7c-0.8,0.3-1.2,1.1-1.3,1.9c0,0.8,0.4,1.6,1.2,2l14,8.1c0.7,0.4,1.6,0.4,2.2,0c0.7-0.4,1.1-1.2,1-2
	l-0.8-14.8c0-0.7-0.4-1.4-1.1-1.8C65.8,8.1,65.1,8,64.4,8.4L64.4,8.4z"/>
<path d="M70.6,75H9.4c-0.9,0-1.8-0.4-2.5-1c-0.7-0.7-1-1.5-1-2.5v-63C5.9,6.5,7.4,5,9.4,5c1.9,0,3.5,1.6,3.5,3.5V68h57.8
	c1.9,0,3.5,1.6,3.5,3.5C74.1,73.5,72.6,75,70.6,75L70.6,75z"/>
<path d="M70.6,75"/>
<path d="M19.9,59.3c-1.3,0-2.5-0.7-3.1-1.8c-0.6-1.1-0.6-2.5,0.1-3.6l12.3-19.3c0.8-1.2,2.3-1.9,3.7-1.5l13.3,3l9.3-15.3
	c0.5-1.3,1.7-2.1,3.1-2.2c1.4-0.1,2.6,0.7,3.3,1.9c0.6,1.2,0.5,2.7-0.4,3.8L50.9,41.8c-0.8,1.3-2.3,1.9-3.7,1.6l-13.4-3L22.8,57.6
	C22.2,58.6,21.1,59.3,19.9,59.3L19.9,59.3z M19.9,59.3"/>
</svg>
