<?xml version="1.0" encoding="utf-8"?>
<!-- Generator: Adobe Illustrator 18.1.0, SVG Export Plug-In . SVG Version: 6.00 Build 0)  -->
<svg version="1.1" id="图层_1" xmlns="http://www.w3.org/2000/svg" xmlns:xlink="http://www.w3.org/1999/xlink" x="0px" y="0px"
	 viewBox="0 0 80 80" enable-background="new 0 0 80 80" xml:space="preserve">
<path d="M70.6,75H9.4c-0.9,0-1.8-0.4-2.5-1c-0.7-0.7-1-1.5-1-2.5v-63C5.9,6.5,7.4,5,9.4,5c1.9,0,3.5,1.6,3.5,3.5V68h57.8
	c1.9,0,3.5,1.6,3.5,3.5C74.1,73.5,72.6,75,70.6,75L70.6,75z"/>
<path d="M68.5,21c0.1-1.2-0.5-2.4-1.6-2.9c-1.1-0.5-2.4-0.3-3.3,0.6L46.2,36.1l-9.6-9.6c-0.5-0.5-1.3-0.8-2.1-0.8
	c-0.8,0-1.5,0.3-2.1,0.8L16.7,42.3c-0.5,0.5-0.8,1.2-0.8,2v10.2c0,3.2,2.6,5.8,5.8,5.8h41c3.1,0,5.6-2.4,5.8-5.4v0
	c0-0.1,0-0.3,0-0.4V44.3c0,0,0-0.1,0-0.1V21L68.5,21z"/>
<path d="M72.9,21.8"/>
</svg>
