<?xml version="1.0" encoding="utf-8"?>
<!-- Generator: Adobe Illustrator 18.1.0, SVG Export Plug-In . SVG Version: 6.00 Build 0)  -->
<svg version="1.1" id="图层_1" xmlns="http://www.w3.org/2000/svg" xmlns:xlink="http://www.w3.org/1999/xlink" x="0px" y="0px"
	 viewBox="0 0 80 80" enable-background="new 0 0 80 80" xml:space="preserve">
<g>
	<polygon points="71.1,30.3 55.8,15.1 51.3,19.5 62.1,30.3 51.3,41.1 55.8,45.6 71.1,30.3 	"/>
	<polygon points="25.9,15.1 10.6,30.3 10.6,30.3 25.9,45.6 30.3,41.1 19.6,30.3 30.3,19.5 	"/>
	<rect x="25.8" y="27.2" transform="matrix(-0.3235 0.9462 -0.9462 -0.3235 82.6908 1.5925)" width="29.9" height="6.3"/>
</g>
<path d="M40.8,43.5"/>
<g>
	<path d="M21.3,70.9h-4v-7.8H9.2v7.8h-4V52h4v7.6h8.1V52h4V70.9z"/>
	<path d="M38.8,55.3h-5.4v15.6h-4V55.3H24V52h14.8V55.3z"/>
	<path d="M58.8,70.9V59.4c0-1.1,0.1-2.4,0.2-4h-0.1c-0.2,1.2-0.4,2-0.6,2.4l-4.7,13.1h-3.2L45.6,58c-0.1-0.3-0.3-1.2-0.6-2.6h-0.1
		c0.1,1.6,0.2,3.2,0.2,4.8v10.7h-3.6V52h5.9l4.1,11.4c0.3,0.9,0.6,1.8,0.7,2.7h0.1c0.3-1,0.5-1.9,0.8-2.7L57,52h5.7v18.9H58.8z"/>
	<path d="M78.3,70.9H67.2V52h4v15.6h7.1V70.9z"/>
</g>
</svg>
