<?xml version="1.0" encoding="utf-8"?>
<!-- Generator: Adobe Illustrator 18.1.0, SVG Export Plug-In . SVG Version: 6.00 Build 0)  -->
<svg version="1.1" id="图层_1" xmlns="http://www.w3.org/2000/svg" xmlns:xlink="http://www.w3.org/1999/xlink" x="0px" y="0px"
	 viewBox="0 0 80 80" enable-background="new 0 0 80 80" xml:space="preserve">
<path d="M70.6,77H9.4c-0.9,0-1.8-0.4-2.5-1c-0.7-0.7-1-1.5-1-2.5v-63C5.9,8.5,7.4,7,9.4,7c1.9,0,3.5,1.6,3.5,3.5V70h57.8
	c1.9,0,3.5,1.6,3.5,3.5C74.1,75.5,72.6,77,70.6,77L70.6,77z"/>
<path d="M55.7,11.1c0.3,0,0.6,0.1,0.9,0.4c0.2,0.3,0.4,0.6,0.4,1v13.1c0,0.4-0.1,0.7-0.4,1C56.4,26.8,56,27,55.7,27H18V11.1H55.7z
	 M55.7,11.1"/>
<path d="M70,31c1,0,1.9,0.1,2.6,0.4c0.7,0.3,1.1,0.6,1.1,1v13.1c0,0.4-0.4,0.7-1.1,1c-0.7,0.3-1.7,0.4-2.6,0.4H18V31H70z M70,31"/>
<path d="M44.6,50.9c1.7,0,3.4,0.1,4.7,0.4c1.3,0.3,2,0.6,2,1v13.1c0,0.4-0.7,0.7-2,1c-1.3,0.3-3,0.4-4.7,0.4H18V50.9H44.6z
	 M44.6,50.9"/>
</svg>
