<?xml version="1.0" encoding="utf-8"?>
<!-- Generator: Adobe Illustrator 18.1.0, SVG Export Plug-In . SVG Version: 6.00 Build 0)  -->
<svg version="1.1" id="图层_1" xmlns="http://www.w3.org/2000/svg" xmlns:xlink="http://www.w3.org/1999/xlink" x="0px" y="0px"
	 viewBox="0 0 80 80" enable-background="new 0 0 80 80" xml:space="preserve">
<g>
	<path d="M40.5,10.9l0,31.3l0,0.2c0,0.1,0,0.2,0,0.2c-0.1,0.6,0.1,1.3,0.5,1.8l0.2,0.2l21.3,22.1c-5.6,4.5-12.5,6.9-19.6,6.9
		c-17.3,0-31.4-14.1-31.4-31.4C11.4,25.7,24.2,12.1,40.5,10.9L40.5,10.9z"/>
	<path d="M47.6,44.6l26.5,0c-0.5,7.1-3.4,13.7-8.2,18.9L47.6,44.6l26.5,0L47.6,44.6L47.6,44.6z"/>
	<path d="M45.2,39.9l0-29c15.5,1.1,27.8,13.5,29,29L45.2,39.9l0-29L45.2,39.9L45.2,39.9z"/>
	<path d="M45.2,39.9"/>
</g>
</svg>
