<?xml version="1.0" encoding="utf-8"?>
<!-- Generator: Adobe Illustrator 18.1.0, SVG Export Plug-In . SVG Version: 6.00 Build 0)  -->
<svg version="1.1" id="图层_1" xmlns="http://www.w3.org/2000/svg" xmlns:xlink="http://www.w3.org/1999/xlink" x="0px" y="0px"
	 viewBox="0 0 80 80" enable-background="new 0 0 80 80" xml:space="preserve">
<path d="M48.2,74c-0.9,0-1.6-0.4-2.3-1.1c-0.6-0.6-0.9-1.6-0.9-2.5v-4.3c0-1.2-0.6-2.3-1.4-3.1c-0.8-0.8-2-1.3-3.1-1.3
	c-1.2,0-2.3,0.5-3.2,1.3c-0.8,0.8-1.3,2-1.3,3.1v4.4c0,0.9-0.4,1.9-1,2.5c-0.6,0.6-1.5,1.1-2.5,1.1h-11c-5.1,0-8.5-4.3-8.5-9.4v-11
	c0-0.9,0-1.4,0.6-2c0.6-0.6,1.1-0.6,2.1-0.6h4.3c1.2,0,2.3-0.9,3.1-1.7c0.8-0.8,1.3-2.2,1.3-3.3c0-1.2-0.5-2.1-1.3-2.9
	c-0.8-0.8-1.9-1.1-3.1-1.1h-4.4c-0.9,0-1.4-0.7-2.1-1.3S13,38.9,13,37.9v-11c0-5.1,3.4-8.9,8.5-8.9H30v-1.2c0-2.8,0.9-5.1,2.9-7.1
	c2-2,4.5-2.7,7.3-2.7h0.1c2.8,0,5.5,0.7,7.5,2.7c2,2,3.1,4.3,3.1,7.1V18h8.2c5.1,0,9.8,3.8,9.8,8.9V36h0.3c2.9,0,5.6,0.6,7.6,2.6
	c2,2,3.1,4.5,3.1,7.4c0,2.8-1.1,5.7-3.1,7.7c-2,2-4.7,3.3-7.5,3.3H69v7.6c0,5.1-4.7,9.4-9.8,9.4H48.2z M59.2,67
	c1.3,0,2.8-1.1,2.8-2.4V53c0-0.9,0.1-1.6,0.8-2.2c0.6-0.6,1.3-0.8,2.2-0.8h4.3c2.2,0,3.8-1.8,3.8-4c0-2.2-1.6-4-3.8-4H65
	c-0.9,0-1.6-0.4-2.2-1c-0.6-0.6-0.8-1.5-0.8-2.5V26.9c0-1.3-1.5-1.9-2.8-1.9H47.6c-0.9,0-1.9-0.6-2.5-1.2S44,22,44,21.1v-4.3
	c0-2.2-1.3-3.8-3.5-3.8c-2.2,0-3.5,1.6-3.5,3.8v4.3c0,0.9-0.6,2-1.2,2.6C35.1,24.4,34,25,33.1,25H21.5c-1.3,0-2.5,0.6-2.5,1.9V35
	h1.1c3,0,5.9,0.9,8,3c2.1,2.1,3.3,4.9,3.3,7.9c0,3-1.2,6.3-3.3,8.4c-2.1,2.1-4.9,3.7-7.9,3.7H19v6.6c0,1.3,1.2,2.4,2.5,2.4H29v-0.9
	c0-3,1.2-5.8,3.3-7.9c2.1-2.1,5-3.2,8-3.2h0.1c3,0,6,1.1,8.1,3.2c2.1,2.1,3.5,4.9,3.5,7.9V67H59.2z"/>
</svg>
